# xmcd
# 
# Track frame offsets:
#     150
#     18897
#     37387
#     53795
#     73212
#     92402
#     108550
#     126105
#     143960
#     162037
#     179417
#     198880
#     213227
#     229160
#     247457
#     263622
#     281642
#     297822
#     313927
#     331702
# 
# Disc length: 4650
# 
# Revision: 32
# Processed by: cddbd v1.5.2PL0 Copyright (c) Steve Scherf et al.
# Submitted via: fre:ac v1.0.31
# 
DISCID=2f122814
DTITLE=Various Artist - Bravo Hits 20 - CD1
DYEAR=1998
DGENRE=Pop
TTITLE0=Janet Jackson - Together Again [Radio Edit]
TTITLE1=Natalie Imbruglia - Torn [Album Version]
TTITLE2=Espen Lind - When Susannah Cries [Single Version]
TTITLE3=The Kelly Family - One More Song [Album Version]
TTITLE4=Savage Garden - To The Moon and Back [Short Edit]
TTITLE5=Young Deenay - Walk On By [Radio Version]
TTITLE6=R'N'G - Open Your Mind [Single Edit Radio]
TTITLE7=Hausmarke - Mädchen No. 1 [Radio Version]
TTITLE8=Deborah - On Court Toujours [Turntablerocker Radio Mix]
TTITLE9=Spice Girls - Too Much
TTITLE10=Something For The People Feat. Trina and Tamara - My Love is The Shhh! [Radio Edit]
TTITLE11=Solid Harmonie - I'll Be There For You [Single Edit]
TTITLE12=Trey D. - Mirror Mirror [Radio Edit]
TTITLE13=Dru Hill - In My Bed
TTITLE14=Down Low - Hit Me Right [Album/Single Version]
TTITLE15=Flip Da Scrip - I Never Told You [Radio Mix]
TTITLE16=Sabrina Setlur Introducing Xavier Naidoo - Freisein [Director's Radio Edit]
TTITLE17=Basis - Ich liebe mich [Radio Edit]
TTITLE18=Fünf Sterne Deluxe - Willst Du mit mir geh'n
TTITLE19=Era - Ameno [Remix]
EXTD=
EXTT0=
EXTT1=
EXTT2=
EXTT3=
EXTT4=
EXTT5=
EXTT6=
EXTT7=
EXTT8=
EXTT9=
EXTT10=
EXTT11=
EXTT12=
EXTT13=
EXTT14=
EXTT15=
EXTT16=
EXTT17=
EXTT18=
EXTT19=
PLAYORDER=
